<?xml version="1.0" standalone="no"?>
<!DOCTYPE svg PUBLIC "-//W3C//DTD SVG 20010904//EN"
 "http://www.w3.org/TR/2001/REC-SVG-20010904/DTD/svg10.dtd">
<svg version="1.0" xmlns="http://www.w3.org/2000/svg"
 width="700.000000pt" height="700.000000pt" viewBox="0 0 700.000000 700.000000"
 preserveAspectRatio="xMidYMid meet">
<metadata>
Created by potrace 1.11, written by Peter Selinger 2001-2013
</metadata>
<g transform="translate(0.000000,700.000000) scale(0.100000,-0.100000)"
fill="#000000" stroke="none">
<path d="M3280 6994 c-450 -41 -777 -119 -1135 -271 -1000 -422 -1758 -1296
-2030 -2338 -81 -310 -109 -535 -110 -880 0 -322 26 -557 96 -843 280 -1153
1128 -2082 2251 -2467 829 -284 1733 -254 2523 83 451 193 839 468 1193 846
811 867 1121 2119 812 3281 -264 995 -981 1840 -1927 2274 -326 149 -683 250
-1043 296 -119 16 -533 28 -630 19z m580 -479 c553 -63 1076 -282 1530 -643
128 -102 388 -363 490 -492 633 -799 826 -1846 518 -2810 -320 -1003 -1168
-1781 -2213 -2030 -250 -60 -382 -74 -700 -74 -312 -1 -410 8 -645 60 -1202
267 -2123 1235 -2334 2454 -34 197 -41 281 -40 530 1 273 13 397 60 624 96
454 297 883 585 1248 101 127 362 389 489 489 513 405 1109 628 1770 663 107
6 357 -4 490 -19z"/>
<path d="M3015 6014 c-372 -80 -716 -231 -1000 -437 -100 -73 -233 -187 -240
-206 -14 -36 -17 -149 -5 -185 29 -90 120 -146 250 -154 114 -7 176 10 271 74
104 69 174 91 241 75 64 -14 144 -66 166 -108 16 -30 17 -3094 1 -3157 -22
-89 -107 -156 -196 -156 -109 1 -235 81 -423 269 -171 171 -275 312 -368 496
-94 189 -165 408 -202 620 -28 162 -39 196 -70 212 -33 17 -408 18 -443 2 -39
-17 -48 -50 -41 -147 41 -647 387 -1298 930 -1751 320 -267 698 -449 1104
-531 178 -37 222 -38 250 -8 l20 22 0 2528 c0 2515 0 2528 -20 2548 -27 27
-83 25 -225 -6z"/>
<path d="M3770 6018 l-20 -22 2 -2534 3 -2534 25 -20 c22 -18 35 -20 120 -15
449 25 987 295 1419 712 266 257 473 539 617 841 120 251 182 481 191 715 8
181 -2 265 -32 295 l-24 24 -586 0 c-619 0 -632 -1 -649 -45 -11 -30 -7 -442
5 -469 7 -14 25 -30 42 -36 18 -6 136 -10 297 -10 298 0 305 -1 303 -62 0 -19
-15 -77 -33 -129 -144 -420 -535 -867 -937 -1070 -126 -64 -168 -72 -199 -38
-19 21 -19 64 -19 1728 l0 1706 25 45 c36 65 101 101 190 108 60 4 76 1 122
-21 74 -36 219 -156 383 -317 170 -166 204 -185 320 -184 44 1 98 6 121 13
140 39 213 194 151 323 -12 26 -64 95 -115 152 -257 293 -639 560 -1025 720
-195 80 -468 146 -608 146 -57 0 -71 -4 -89 -22z"/>
</g>
</svg>
