<?xml version="1.0" encoding="utf-8"?>
<!-- Generated by IcoMoon.io -->
<!DOCTYPE svg PUBLIC "-//W3C//DTD SVG 1.1//EN" "http://www.w3.org/Graphics/SVG/1.1/DTD/svg11.dtd">
<svg version="1.1" xmlns="http://www.w3.org/2000/svg" xmlns:xlink="http://www.w3.org/1999/xlink" width="30" height="28" viewBox="0 0 30 28">
<path fill="#52b235" d="M30 18c0 3.313-2.688 6-6 6h-17c-3.859 0-7-3.141-7-7 0-2.797 1.656-5.219 4.031-6.328-0.016-0.219-0.031-0.453-0.031-0.672 0-4.422 3.578-8 8-8 3.344 0 6.203 2.047 7.406 4.969 0.688-0.609 1.594-0.969 2.594-0.969 2.203 0 4 1.797 4 4 0 0.797-0.234 1.531-0.641 2.156 2.656 0.625 4.641 3 4.641 5.844z"></path>
</svg>
