<?xml version="1.0" encoding="utf-8"?>
<!-- Generated by IcoMoon.io -->
<!DOCTYPE svg PUBLIC "-//W3C//DTD SVG 1.1//EN" "http://www.w3.org/Graphics/SVG/1.1/DTD/svg11.dtd">
<svg version="1.1" xmlns="http://www.w3.org/2000/svg" xmlns:xlink="http://www.w3.org/1999/xlink" width="22" height="28" viewBox="0 0 22 28">
<path d="M8 21.5v-11c0-0.281-0.219-0.5-0.5-0.5h-1c-0.281 0-0.5 0.219-0.5 0.5v11c0 0.281 0.219 0.5 0.5 0.5h1c0.281 0 0.5-0.219 0.5-0.5zM12 21.5v-11c0-0.281-0.219-0.5-0.5-0.5h-1c-0.281 0-0.5 0.219-0.5 0.5v11c0 0.281 0.219 0.5 0.5 0.5h1c0.281 0 0.5-0.219 0.5-0.5zM16 21.5v-11c0-0.281-0.219-0.5-0.5-0.5h-1c-0.281 0-0.5 0.219-0.5 0.5v11c0 0.281 0.219 0.5 0.5 0.5h1c0.281 0 0.5-0.219 0.5-0.5zM7.5 6h7l-0.75-1.828c-0.047-0.063-0.187-0.156-0.266-0.172h-4.953c-0.094 0.016-0.219 0.109-0.266 0.172zM22 6.5v1c0 0.281-0.219 0.5-0.5 0.5h-1.5v14.812c0 1.719-1.125 3.187-2.5 3.187h-13c-1.375 0-2.5-1.406-2.5-3.125v-14.875h-1.5c-0.281 0-0.5-0.219-0.5-0.5v-1c0-0.281 0.219-0.5 0.5-0.5h4.828l1.094-2.609c0.313-0.766 1.25-1.391 2.078-1.391h5c0.828 0 1.766 0.625 2.078 1.391l1.094 2.609h4.828c0.281 0 0.5 0.219 0.5 0.5z"></path>
</svg>
